<?xml version="1.0" encoding="utf-8"?>
<!-- Generator: Adobe Illustrator 27.6.1, SVG Export Plug-In . SVG Version: 6.00 Build 0)  -->
<svg version="1.1" xmlns="http://www.w3.org/2000/svg" xmlns:xlink="http://www.w3.org/1999/xlink" x="0px" y="0px"
	 viewBox="0 0 1920 1080" enable-background="new 0 0 1920 1080" xml:space="preserve">
<g id="Layer_1" display="none">
	
		<image display="inline" overflow="visible" width="1024" height="1024" xlink:href="BBLOGOWT.png"  transform="matrix(1 0 0 1 448 28)">
	</image>
</g>
<g id="Layer_2">
	<path fill="none" stroke="#FFFFFF" stroke-width="44" stroke-linecap="round" stroke-linejoin="round" stroke-miterlimit="10" d="
		M627,272c-5.58,20.64-14.74,54.67-26,97c-23.18,87.15-25.52,97.82-31,98c-16.66,0.55-62.55-96.23-20-165
		c40.56-65.55,142.45-79.45,162-54c13.06,17-8.79,54-10,56c-25.33,41.96-77.69,53.58-76,58c1.1,2.86,24.72-10.62,49-3
		c18.43,5.78,35.42,23.13,39,42c7.1,37.42-39.55,75.44-78,89c-48.66,17.17-99.94,0.73-100-8c-0.09-14.56,150.05,6.51,211-78
		c20.43-28.33,35.88-75.51,30-79c-3.94-2.34-20.83,12.92-18,22c4.09,13.12,52.03,1.39,57,15c2.55,6.97-8.78,13.13-19,30
		c-16.54,27.29-19.21,64.45-9,70c10.05,5.46,34.07-18.89,46-34c17.31-21.91,24.15-43.67,34-76c6.57-21.58,17.02-55.89,14-57
		c-5.1-1.88-61.46,86.25-32,136c2.83,4.77,11.25,19,24,20c50.66,3.97,120.45-204.66,98-217c-13.7-7.53-69.84,53.57-60,70
		c12.64,21.1,138.93-23.58,137-33c-1.32-6.46-66.26-12.12-103,22c-48.78,45.31-34.63,148.5-12,154c27.89,6.78,79.37-132.24,92-127
		c11.09,4.6-22.3,114.36-20,115c1,0.28,6.56-38.12,33-73c23.04-30.4,58.37-53.44,68-46c15.22,11.76-41.67,93.6-23,109
		c8.02,6.61,28.66-0.1,39-12c9.8-11.28,4.2-20.14,12-32c13.12-19.93,40.14-8.01,61-26c25.72-22.18,33.5-66.08,23-73
		c-13.4-8.82-76.47,29.44-74,79c1.55,31.14,28.75,62.33,49,60c20.7-2.38,18.79-38.02,57-62c19.39-12.17,25.49-6.51,45-20
		c25.98-17.96,46.37-49.57,39-60c-6.46-9.14-36.36-4.82-54,11c-33.64,30.18-23.97,103.38,2,114c23.98,9.81,74.83-28.42,70-48
		c-15.91-64.51-645.54,36.32-698,182c-0.24,0.67-0.35,1-16,46c-35.6,102.35-53.64,153.46-57,153c-12.47-1.71-34.62-113.9,25-175
		c33.82-34.66,93.33-52.24,111-34c10.77,11.13,6.2,35.84-3,52c-20.45,35.91-73.49,43.56-73,45c0.39,1.13,43.73-22.28,70-6
		c17.74,11,19.87,35.27,20,37c0.71,9.7-1.27,22.5-20,48c-23.44,31.92-41.3,56.23-73.96,66.17c-34.29,10.43-84.4,4.85-91.04-15.17
		c-17.77-53.56,279.16-199.86,281-197c1,1.55-12.55,8.44-26,28c-22.08,32.1-32.62,81.93-14,96c13.48,10.18,39.28-0.59,53-11
		c32.15-24.41,26.89-68.83,25-80c-1.46-8.62-5.32-31.51-18-34c-10.4-2.04-24.6,10.07-24,20c0.9,14.74,34.82,31.49,54,22
		c13.29-6.58,11.59-21.85,33-38c1.4-1.05,16.41-12.26,20-9c4.45,4.04-15.1,24.41-24,56c-7.82,27.78-6.86,62.29,2,65
		c18.82,5.75,78.67-131.61,82-130c1.67,0.8-17.44,33.19-15,76c0.78,13.67,2.1,36.87,12,40c26.18,8.27,102.42-127.59,84-143
		c-3.31-2.77-10.78-3.15-15,0c-5.31,3.96-6.83,14.53-3,21c9.25,15.64,48.32,1.22,53,12c2.85,6.55-10.49,14.11-20,31
		c-15.26,27.1-12.63,64-4,67c18.88,6.57,80.87-143.83,93-139c10.31,4.1-22.37,121.38-24,121c-1-0.23,1.96-46.21,31-83
		c23.38-29.61,57.76-45.8,65-39c7.12,6.7-13.35,34.49-18.8,88.55c-0.99,9.82-1.49,20.57,3.8,23.45c8.69,4.73,27.67-14.62,30-17
		c17.27-17.61,14.68-28.24,29-40c12.5-10.26,19.22-4.4,35-14c20.69-12.58,49.62-51.06,41-61c-6.61-7.63-34.37,5.21-50,16
		c-10.45,7.22-26.8,18.51-33,39c-8.91,29.43,6.33,67.18,28,74c30.5,9.59,82.95-43.63,76-57c-23-44.28-706.02,266.39-703,274
		c1.47,3.71,161.17-76.22,398-109c108.29-14.99,200.98-15.74,269-13"/>
</g>
</svg>
